<svg xmlns="http://www.w3.org/2000/svg" viewBox="0 0 475 148" role="img" aria-labelledby="stacklyTitle">
  <title id="stacklyTitle">Stackly</title>
  <path fill="#9FE9D6" d="M118.7 0h34.5L82.9 72.8c-7.8 8.1-7.6 20.9.6 28.7l21 20.1-23.1 24-43.8-42C16.3 83.2 15.7 49.3 36.3 28L63.4 0h34.4L61 38.1c-10.2 10.5-9.9 27.2.6 37.3l20.7 19.9L118.7 0Z"/>
  <path fill="#1B5F88" d="M60.7 148H26.2l70.3-72.8c7.8-8.1 7.6-20.9-.6-28.7l-21-20.1 23.1-24 43.8 42c21.3 20.4 21.9 54.3 1.3 75.6L116 148H81.6l36.8-38.1c10.2-10.5 9.9-27.2-.6-37.3L97.1 52.7 60.7 148Z"/>
  <text x="168" y="91" fill="#343434" font-family="Inter, Arial, Helvetica, sans-serif" font-size="62" font-weight="800" letter-spacing="-2">STACKLY</text>
</svg>
